<?xml version="1.0" encoding="UTF-8" standalone="no"?>
<!DOCTYPE svg PUBLIC "-//W3C//DTD SVG 1.1//EN"
 "http://www.w3.org/Graphics/SVG/1.1/DTD/svg11.dtd">
<!-- Generated by graphviz version 2.47.1 (20210515.0534)
 -->
<!-- Title: SchemaCrawler_Diagram Pages: 1 -->
<svg width="881pt" height="248pt"
 viewBox="0.00 0.00 881.00 248.00" xmlns="http://www.w3.org/2000/svg" xmlns:xlink="http://www.w3.org/1999/xlink">
<g id="graph0" class="graph" transform="scale(1 1) rotate(0) translate(4 244)">
<title>SchemaCrawler_Diagram</title>
<polygon fill="white" stroke="transparent" points="-4,4 -4,-244 877,-244 877,4 -4,4"/>
<text text-anchor="start" x="634.5" y="-29.8" font-family="Helvetica,sans-Serif" font-size="14.00">generated by</text>
<text text-anchor="start" x="717.5" y="-29.8" font-family="Helvetica,sans-Serif" font-size="14.00">SchemaCrawler 16.15.9</text>
<text text-anchor="start" x="633.5" y="-10.8" font-family="Helvetica,sans-Serif" font-size="14.00">generated on</text>
<text text-anchor="start" x="717.5" y="-10.8" font-family="Helvetica,sans-Serif" font-size="14.00">2021&#45;10&#45;21 13:36:26</text>
<polygon fill="none" stroke="#888888" points="630,-4 630,-44 865,-44 865,-4 630,-4"/>
<!-- halls_5e7bbb9 -->
<g id="node1" class="node">
<title>halls_5e7bbb9</title>
<polygon fill="#f2e6c2" stroke="transparent" points="12.5,-120.5 12.5,-139.5 58.5,-139.5 58.5,-120.5 12.5,-120.5"/>
<text text-anchor="start" x="14.5" y="-127.3" font-family="Helvetica,sans-Serif" font-weight="bold" font-style="italic" font-size="14.00">halls</text>
<polygon fill="#f2e6c2" stroke="transparent" points="58.5,-120.5 58.5,-139.5 235.5,-139.5 235.5,-120.5 58.5,-120.5"/>
<text text-anchor="start" x="196.5" y="-126.3" font-family="Helvetica,sans-Serif" font-size="14.00">[table]</text>
<text text-anchor="start" x="14.5" y="-107.3" font-family="Helvetica,sans-Serif" font-size="14.00">name</text>
<text text-anchor="start" x="52.5" y="-107.3" font-family="Helvetica,sans-Serif" font-size="14.00"> </text>
<text text-anchor="start" x="60.5" y="-107.3" font-family="Helvetica,sans-Serif" font-size="14.00">VARCHAR(100) NOT NULL</text>
<text text-anchor="start" x="14.5" y="-89.3" font-family="Helvetica,sans-Serif" font-weight="bold" font-style="italic" font-size="14.00">id</text>
<text text-anchor="start" x="52.5" y="-88.3" font-family="Helvetica,sans-Serif" font-size="14.00"> </text>
<text text-anchor="start" x="60.5" y="-88.3" font-family="Helvetica,sans-Serif" font-size="14.00">INT NOT NULL</text>
<polygon fill="none" stroke="#888888" points="11,-82 11,-141 236,-141 236,-82 11,-82"/>
</g>
<!-- schedule_d66706f6 -->
<g id="node2" class="node">
<title>schedule_d66706f6</title>
<polygon fill="#f2e6c2" stroke="transparent" points="313.5,-195.5 313.5,-214.5 380.5,-214.5 380.5,-195.5 313.5,-195.5"/>
<text text-anchor="start" x="315.5" y="-202.3" font-family="Helvetica,sans-Serif" font-weight="bold" font-style="italic" font-size="14.00">schedule</text>
<polygon fill="#f2e6c2" stroke="transparent" points="380.5,-195.5 380.5,-214.5 530.5,-214.5 530.5,-195.5 380.5,-195.5"/>
<text text-anchor="start" x="491.5" y="-201.3" font-family="Helvetica,sans-Serif" font-size="14.00">[table]</text>
<text text-anchor="start" x="315.5" y="-182.3" font-family="Helvetica,sans-Serif" font-size="14.00">movie_id</text>
<text text-anchor="start" x="374.5" y="-182.3" font-family="Helvetica,sans-Serif" font-size="14.00"> </text>
<text text-anchor="start" x="382.5" y="-182.3" font-family="Helvetica,sans-Serif" font-size="14.00">INT NOT NULL</text>
<text text-anchor="start" x="315.5" y="-164.3" font-family="Helvetica,sans-Serif" font-weight="bold" font-style="italic" font-size="14.00">hall_id</text>
<text text-anchor="start" x="374.5" y="-163.3" font-family="Helvetica,sans-Serif" font-size="14.00"> </text>
<text text-anchor="start" x="382.5" y="-163.3" font-family="Helvetica,sans-Serif" font-size="14.00">INT NOT NULL</text>
<text text-anchor="start" x="315.5" y="-145.3" font-family="Helvetica,sans-Serif" font-weight="bold" font-style="italic" font-size="14.00">start_at</text>
<text text-anchor="start" x="374.5" y="-144.3" font-family="Helvetica,sans-Serif" font-size="14.00"> </text>
<text text-anchor="start" x="382.5" y="-144.3" font-family="Helvetica,sans-Serif" font-size="14.00">DATETIME NOT NULL</text>
<polygon fill="none" stroke="#888888" points="312,-137.5 312,-215.5 531,-215.5 531,-137.5 312,-137.5"/>
</g>
<!-- schedule_d66706f6&#45;&gt;halls_5e7bbb9 -->
<g id="edge1" class="edge">
<title>schedule_d66706f6:w&#45;&gt;halls_5e7bbb9:e</title>
<path fill="none" stroke="black" d="M294.96,-161.81C271.68,-146.93 275.62,-101.27 246.62,-92.85"/>
<polygon fill="black" stroke="black" points="302.84,-163.92 311.34,-170.85 307.67,-165.21 312.5,-166.5 312.5,-166.5 312.5,-166.5 307.67,-165.21 313.66,-162.15 302.84,-163.92 302.84,-163.92"/>
<ellipse fill="none" stroke="black" cx="298.98" cy="-162.88" rx="4" ry="4"/>
<polygon fill="black" stroke="black" points="236.83,-96.59 238.15,-86.68 240.13,-86.94 238.81,-96.85 236.83,-96.59"/>
<polyline fill="none" stroke="black" points="236.5,-91.5 241.46,-92.16 "/>
<polygon fill="black" stroke="black" points="241.79,-97.25 243.11,-87.33 245.09,-87.6 243.77,-97.51 241.79,-97.25"/>
<polyline fill="none" stroke="black" points="241.46,-92.16 246.41,-92.82 "/>
</g>
<!-- movies_c0541ba2 -->
<g id="node4" class="node">
<title>movies_c0541ba2</title>
<polygon fill="#f2e6c2" stroke="transparent" points="9.5,-215.5 9.5,-234.5 61.5,-234.5 61.5,-215.5 9.5,-215.5"/>
<text text-anchor="start" x="11.5" y="-222.3" font-family="Helvetica,sans-Serif" font-weight="bold" font-style="italic" font-size="14.00">movies</text>
<polygon fill="#f2e6c2" stroke="transparent" points="61.5,-215.5 61.5,-234.5 238.5,-234.5 238.5,-215.5 61.5,-215.5"/>
<text text-anchor="start" x="199.5" y="-221.3" font-family="Helvetica,sans-Serif" font-size="14.00">[table]</text>
<text text-anchor="start" x="11.5" y="-202.3" font-family="Helvetica,sans-Serif" font-size="14.00">title</text>
<text text-anchor="start" x="46.5" y="-202.3" font-family="Helvetica,sans-Serif" font-size="14.00"> </text>
<text text-anchor="start" x="63.5" y="-202.3" font-family="Helvetica,sans-Serif" font-size="14.00">VARCHAR(200) NOT NULL</text>
<text text-anchor="start" x="11.5" y="-184.3" font-family="Helvetica,sans-Serif" font-weight="bold" font-style="italic" font-size="14.00">id</text>
<text text-anchor="start" x="46.5" y="-183.3" font-family="Helvetica,sans-Serif" font-size="14.00"> </text>
<text text-anchor="start" x="63.5" y="-183.3" font-family="Helvetica,sans-Serif" font-size="14.00">INT NOT NULL</text>
<polygon fill="none" stroke="#888888" points="8,-177 8,-236 239,-236 239,-177 8,-177"/>
</g>
<!-- schedule_d66706f6&#45;&gt;movies_c0541ba2 -->
<g id="edge3" class="edge">
<title>schedule_d66706f6:w&#45;&gt;movies_c0541ba2:e</title>
<path fill="none" stroke="black" d="M294.48,-186.5C278.2,-186.5 268.18,-186.5 249.68,-186.5"/>
<polygon fill="black" stroke="black" points="302.5,-186.5 312.5,-191 307.5,-186.5 312.5,-186.5 312.5,-186.5 312.5,-186.5 307.5,-186.5 312.5,-182 302.5,-186.5 302.5,-186.5"/>
<ellipse fill="none" stroke="black" cx="298.5" cy="-186.5" rx="4" ry="4"/>
<polygon fill="black" stroke="black" points="240.5,-191.5 240.5,-181.5 242.5,-181.5 242.5,-191.5 240.5,-191.5"/>
<polyline fill="none" stroke="black" points="239.5,-186.5 244.5,-186.5 "/>
<polygon fill="black" stroke="black" points="245.5,-191.5 245.5,-181.5 247.5,-181.5 247.5,-191.5 245.5,-191.5"/>
<polyline fill="none" stroke="black" points="244.5,-186.5 249.5,-186.5 "/>
</g>
<!-- seats_684676d -->
<g id="node3" class="node">
<title>seats_684676d</title>
<polygon fill="#f2e6c2" stroke="transparent" points="292.5,-90.5 292.5,-109.5 389.5,-109.5 389.5,-90.5 292.5,-90.5"/>
<text text-anchor="start" x="294.5" y="-97.3" font-family="Helvetica,sans-Serif" font-weight="bold" font-style="italic" font-size="14.00">seats</text>
<polygon fill="#f2e6c2" stroke="transparent" points="389.5,-90.5 389.5,-109.5 551.5,-109.5 551.5,-90.5 389.5,-90.5"/>
<text text-anchor="start" x="512.5" y="-96.3" font-family="Helvetica,sans-Serif" font-size="14.00">[table]</text>
<text text-anchor="start" x="294.5" y="-78.3" font-family="Helvetica,sans-Serif" font-weight="bold" font-style="italic" font-size="14.00">hall_id</text>
<text text-anchor="start" x="383.5" y="-77.3" font-family="Helvetica,sans-Serif" font-size="14.00"> </text>
<text text-anchor="start" x="391.5" y="-77.3" font-family="Helvetica,sans-Serif" font-size="14.00">INT NOT NULL</text>
<text text-anchor="start" x="294.5" y="-59.3" font-family="Helvetica,sans-Serif" font-weight="bold" font-style="italic" font-size="14.00">seat_number</text>
<text text-anchor="start" x="383.5" y="-58.3" font-family="Helvetica,sans-Serif" font-size="14.00"> </text>
<text text-anchor="start" x="391.5" y="-58.3" font-family="Helvetica,sans-Serif" font-size="14.00">VARCHAR(5) NOT NULL</text>
<polygon fill="none" stroke="#888888" points="291,-52 291,-111 552,-111 552,-52 291,-52"/>
</g>
<!-- seats_684676d&#45;&gt;halls_5e7bbb9 -->
<g id="edge2" class="edge">
<title>seats_684676d:w&#45;&gt;halls_5e7bbb9:e</title>
<path fill="none" stroke="black" d="M273.49,-82.83C264.34,-85.36 257.61,-89.23 246.74,-90.8"/>
<polygon fill="black" stroke="black" points="281.58,-81.78 292.08,-84.96 286.54,-81.14 291.5,-80.5 291.5,-80.5 291.5,-80.5 286.54,-81.14 290.92,-76.04 281.58,-81.78 281.58,-81.78"/>
<ellipse fill="none" stroke="black" cx="277.62" cy="-82.3" rx="4" ry="4"/>
<polygon fill="black" stroke="black" points="237.84,-96.42 237.16,-86.44 239.15,-86.31 239.83,-96.28 237.84,-96.42"/>
<polyline fill="none" stroke="black" points="236.5,-91.5 241.49,-91.16 "/>
<polygon fill="black" stroke="black" points="242.83,-96.08 242.14,-86.1 244.14,-85.97 244.82,-95.94 242.83,-96.08"/>
<polyline fill="none" stroke="black" points="241.49,-91.16 246.48,-90.82 "/>
</g>
<!-- tickets_sold_bd25638b -->
<g id="node5" class="node">
<title>tickets_sold_bd25638b</title>
<polygon fill="#f2e6c2" stroke="transparent" points="605.5,-142.5 605.5,-161.5 702.5,-161.5 702.5,-142.5 605.5,-142.5"/>
<text text-anchor="start" x="607.5" y="-149.3" font-family="Helvetica,sans-Serif" font-weight="bold" font-style="italic" font-size="14.00">tickets_sold</text>
<polygon fill="#f2e6c2" stroke="transparent" points="702.5,-142.5 702.5,-161.5 864.5,-161.5 864.5,-142.5 702.5,-142.5"/>
<text text-anchor="start" x="825.5" y="-148.3" font-family="Helvetica,sans-Serif" font-size="14.00">[table]</text>
<text text-anchor="start" x="607.5" y="-130.3" font-family="Helvetica,sans-Serif" font-weight="bold" font-style="italic" font-size="14.00">hall_id</text>
<text text-anchor="start" x="696.5" y="-129.3" font-family="Helvetica,sans-Serif" font-size="14.00"> </text>
<text text-anchor="start" x="704.5" y="-129.3" font-family="Helvetica,sans-Serif" font-size="14.00">INT NOT NULL</text>
<text text-anchor="start" x="607.5" y="-111.3" font-family="Helvetica,sans-Serif" font-weight="bold" font-style="italic" font-size="14.00">start_at</text>
<text text-anchor="start" x="696.5" y="-110.3" font-family="Helvetica,sans-Serif" font-size="14.00"> </text>
<text text-anchor="start" x="704.5" y="-110.3" font-family="Helvetica,sans-Serif" font-size="14.00">DATETIME NOT NULL</text>
<text text-anchor="start" x="607.5" y="-92.3" font-family="Helvetica,sans-Serif" font-weight="bold" font-style="italic" font-size="14.00">seat_number</text>
<text text-anchor="start" x="696.5" y="-91.3" font-family="Helvetica,sans-Serif" font-size="14.00"> </text>
<text text-anchor="start" x="704.5" y="-91.3" font-family="Helvetica,sans-Serif" font-size="14.00">VARCHAR(5) NOT NULL</text>
<polygon fill="none" stroke="#888888" points="604,-84.5 604,-162.5 865,-162.5 865,-84.5 604,-84.5"/>
</g>
<!-- tickets_sold_bd25638b&#45;&gt;schedule_d66706f6 -->
<g id="edge4" class="edge">
<title>tickets_sold_bd25638b:w&#45;&gt;schedule_d66706f6:e</title>
<path fill="none" stroke="black" d="M586.71,-136.91C569.4,-144.25 561.99,-161.26 541.52,-165.52"/>
<polygon fill="black" stroke="black" points="594.68,-135.38 605.35,-137.92 599.59,-134.44 604.5,-133.5 604.5,-133.5 604.5,-133.5 599.59,-134.44 603.65,-129.08 594.68,-135.38 594.68,-135.38"/>
<ellipse fill="none" stroke="black" cx="590.75" cy="-136.13" rx="4" ry="4"/>
<polygon fill="black" stroke="black" points="532.98,-171.38 532.01,-161.43 534,-161.23 534.97,-171.18 532.98,-171.38"/>
<polyline fill="none" stroke="black" points="531.5,-166.5 536.48,-166.01 "/>
<polygon fill="black" stroke="black" points="537.96,-170.89 536.98,-160.94 538.97,-160.74 539.95,-170.7 537.96,-170.89"/>
<polyline fill="none" stroke="black" points="536.48,-166.01 541.45,-165.52 "/>
</g>
<!-- tickets_sold_bd25638b&#45;&gt;schedule_d66706f6 -->
<g id="edge5" class="edge">
<title>tickets_sold_bd25638b:w&#45;&gt;schedule_d66706f6:e</title>
<path fill="none" stroke="black" d="M586.66,-117.01C569.34,-124.58 562.09,-142.1 541.56,-146.49"/>
<polygon fill="black" stroke="black" points="594.69,-115.43 605.37,-117.92 599.59,-114.47 604.5,-113.5 604.5,-113.5 604.5,-113.5 599.59,-114.47 603.63,-109.08 594.69,-115.43 594.69,-115.43"/>
<ellipse fill="none" stroke="black" cx="590.76" cy="-116.2" rx="4" ry="4"/>
<polygon fill="black" stroke="black" points="533,-152.37 531.99,-142.43 533.98,-142.22 534.99,-152.17 533,-152.37"/>
<polyline fill="none" stroke="black" points="531.5,-147.5 536.47,-147 "/>
<polygon fill="black" stroke="black" points="537.97,-151.87 536.97,-141.92 538.96,-141.72 539.96,-151.67 537.97,-151.87"/>
<polyline fill="none" stroke="black" points="536.47,-147 541.45,-146.5 "/>
</g>
<!-- tickets_sold_bd25638b&#45;&gt;seats_684676d -->
<g id="edge6" class="edge">
<title>tickets_sold_bd25638b:w&#45;&gt;seats_684676d:e</title>
<path fill="none" stroke="black" d="M587.83,-126.13C577.41,-113.84 577.41,-89.81 562.49,-82.59"/>
<polygon fill="black" stroke="black" points="595.35,-129.46 602.68,-137.62 599.93,-131.48 604.5,-133.5 604.5,-133.5 604.5,-133.5 599.93,-131.48 606.32,-129.38 595.35,-129.46 595.35,-129.46"/>
<ellipse fill="none" stroke="black" cx="591.7" cy="-127.84" rx="4" ry="4"/>
<polygon fill="black" stroke="black" points="552.45,-85.6 554.5,-75.81 556.46,-76.22 554.41,-86.01 552.45,-85.6"/>
<polyline fill="none" stroke="black" points="552.5,-80.5 557.39,-81.53 "/>
<polygon fill="black" stroke="black" points="557.35,-86.62 559.4,-76.84 561.36,-77.25 559.3,-87.04 557.35,-86.62"/>
<polyline fill="none" stroke="black" points="557.39,-81.53 562.29,-82.55 "/>
</g>
<!-- tickets_sold_bd25638b&#45;&gt;seats_684676d -->
<g id="edge7" class="edge">
<title>tickets_sold_bd25638b:w&#45;&gt;seats_684676d:e</title>
<path fill="none" stroke="black" d="M587.21,-88.14C578.42,-80.42 574.04,-67.87 562.41,-63.27"/>
<polygon fill="black" stroke="black" points="595.12,-91.05 602.95,-98.72 599.81,-92.77 604.5,-94.5 604.5,-94.5 604.5,-94.5 599.81,-92.77 606.05,-90.28 595.12,-91.05 595.12,-91.05"/>
<ellipse fill="none" stroke="black" cx="591.36" cy="-89.66" rx="4" ry="4"/>
<polygon fill="black" stroke="black" points="552.61,-66.6 554.36,-56.75 556.33,-57.1 554.58,-66.95 552.61,-66.6"/>
<polyline fill="none" stroke="black" points="552.5,-61.5 557.42,-62.38 "/>
<polygon fill="black" stroke="black" points="557.53,-67.48 559.28,-57.63 561.25,-57.98 559.5,-67.83 557.53,-67.48"/>
<polyline fill="none" stroke="black" points="557.42,-62.38 562.34,-63.26 "/>
</g>
</g>
</svg>
